<svg width="132" height="201" viewBox="0 0 132 201" fill="none" xmlns="http://www.w3.org/2000/svg">
<path d="M36.704 90.248C36.384 90.248 36.128 90.088 35.936 89.768C35.744 89.448 35.648 88.984 35.648 88.376L35.6 81.272C35.568 80.664 35.552 79.656 35.552 78.248C35.488 75.272 35.456 71.912 35.456 68.168V65.72C35.168 67.256 34.672 69.416 33.968 72.2C33.264 75.08 32.768 77.448 32.48 79.304V79.592L32.336 80.504C32.272 81.208 32.112 81.928 31.856 82.664C31.536 83.432 31.04 83.816 30.368 83.816C29.216 83.816 28.64 82.312 28.64 79.304C28.64 77.64 28.464 75.864 28.112 73.976C27.792 72.056 27.264 69.704 26.528 66.92L25.088 61.544L24.992 67.304C24.992 69.032 25.072 72.328 25.232 77.192L25.328 80.456L25.424 87.032C25.424 87.704 25.184 88.312 24.704 88.856C23.904 88.856 23.344 88.616 23.024 88.136C22.736 87.624 22.592 86.888 22.592 85.928L22.688 81.992C22.784 80.264 22.832 78.968 22.832 78.104L22.736 68.84L22.64 59.528C22.64 58.152 22.672 56.088 22.736 53.336L24.032 52.568C24.288 52.6 24.544 52.792 24.8 53.144C25.056 53.464 25.344 53.992 25.664 54.728C26.464 56.712 27.504 60.68 28.784 66.632C28.976 67.464 29.104 68.152 29.168 68.696C29.552 70.552 29.824 71.96 29.984 72.92L30.704 76.616L31.04 75.032L31.952 71.096C32.464 68.792 32.88 66.776 33.2 65.048C33.552 63.32 33.888 61.448 34.208 59.432C34.56 57.032 34.784 55.032 34.88 53.432V53.144C34.944 52.728 35.136 52.408 35.456 52.184C35.776 51.928 36.16 51.8 36.608 51.8C36.896 51.8 37.152 51.928 37.376 52.184C37.6 52.44 37.712 52.712 37.712 53C37.712 56.84 37.856 62.584 38.144 70.232C38.304 73.976 38.416 77.64 38.48 81.224C38.544 82.856 38.576 84.92 38.576 87.416C38.576 88.152 38.384 88.808 38 89.384C37.616 89.96 37.184 90.248 36.704 90.248ZM54.134 89.432C53.398 89.432 52.854 89.32 52.502 89.096C52.15 88.872 51.974 88.456 51.974 87.848C51.974 86.888 51.814 85.256 51.494 82.952L51.302 81.944L46.55 81.224C46.358 81.96 46.086 83.448 45.734 85.688C45.542 87.256 45.238 88.296 44.822 88.808C44.598 89.096 44.278 89.24 43.862 89.24C43.478 89.24 43.126 89.128 42.806 88.904C42.486 88.648 42.326 88.344 42.326 87.992L42.422 87.752L42.47 87.56C44.582 79.336 46.182 71.224 47.27 63.224C47.27 63.096 47.286 62.888 47.318 62.6C47.35 62.28 47.382 61.832 47.414 61.256C47.51 60.072 47.606 59.128 47.702 58.424C47.83 57.72 48.022 57.192 48.278 56.84H49.91C50.358 56.84 50.742 56.952 51.062 57.176C51.382 57.368 51.542 57.656 51.542 58.04C51.542 60.472 51.878 64.088 52.55 68.888C53.19 73.816 53.51 77.272 53.51 79.256C53.51 79.448 53.59 79.944 53.75 80.744C53.91 81.48 53.99 81.96 53.99 82.184C53.99 82.408 54.15 83.368 54.47 85.064C54.758 86.6 54.902 87.592 54.902 88.04V88.088C54.902 88.792 54.646 89.24 54.134 89.432ZM50.966 80.216C50.87 79.736 50.822 79.144 50.822 78.44C50.822 75.56 50.566 71.88 50.054 67.4L49.574 62.408C48.198 69.928 47.254 75.608 46.742 79.448C47.222 79.768 48.63 80.024 50.966 80.216ZM72.1258 89.144C71.7418 89.144 71.4538 89.048 71.2618 88.856C71.0698 88.632 70.9258 88.264 70.8298 87.752L70.5418 86.84V86.744V86.6C70.5418 85.544 69.4378 81.944 67.2298 75.8C65.0538 69.656 63.3418 65.112 62.0938 62.168V86.312L62.2858 86.648C62.3178 86.712 62.3818 86.824 62.4778 86.984C62.5738 87.144 62.6218 87.304 62.6218 87.464C62.6218 87.88 62.4778 88.232 62.1898 88.52C61.9018 88.808 61.5498 88.952 61.1338 88.952C60.1098 88.952 59.5978 87.976 59.5978 86.024L59.5498 77.816C59.5178 75.352 59.5018 72.6 59.5018 69.56C59.5018 68.536 59.5498 67.048 59.6458 65.096C59.7418 63.08 59.7898 61.592 59.7898 60.632C59.7898 59.128 60.3658 57.944 61.5178 57.08V57.368C61.7098 57.304 61.8378 57.272 61.9018 57.272C62.6378 57.272 63.5658 58.552 64.6858 61.112C65.5818 63.16 66.3818 65.32 67.0858 67.592C67.8218 69.864 68.7818 73.096 69.9658 77.288L70.4458 79.016C71.1818 81.608 71.7418 83.464 72.1258 84.584C72.7658 77.704 73.0858 69.576 73.0858 60.2V59.576C73.0538 59.384 73.0378 59.176 73.0378 58.952C73.0378 57.992 73.4218 57.512 74.1898 57.512C74.6378 57.512 74.9738 57.688 75.1978 58.04C75.4538 58.392 75.5818 58.84 75.5818 59.384V62.984C75.5178 67.912 75.3258 73.256 75.0058 79.016C74.6858 84.776 74.3018 88.024 73.8538 88.76C72.9258 89.016 72.3498 89.144 72.1258 89.144ZM88.2305 89.384C87.3345 89.384 86.5185 89.224 85.7825 88.904C85.0465 88.552 84.4225 88.104 83.9105 87.56C83.4945 87.112 83.1105 86.456 82.7585 85.592C82.4065 84.728 82.1505 83.896 81.9905 83.096C81.8305 82.488 81.7025 81.608 81.6065 80.456C81.5105 79.304 81.4465 78.312 81.4145 77.48V74.696V72.776C81.4145 70.92 81.4465 69.4 81.5105 68.216C81.5745 66.776 81.7825 65.256 82.1345 63.656C82.4225 62.216 82.9185 60.952 83.6225 59.864C84.2945 58.776 85.2385 58.024 86.4545 57.608C87.0305 57.384 87.7025 57.272 88.4705 57.272C89.8465 57.272 90.5345 57.672 90.5345 58.472C90.5345 58.856 90.3745 59.176 90.0545 59.432C89.7665 59.656 89.4145 59.768 88.9985 59.768C88.8065 59.768 88.6305 59.752 88.4705 59.72C88.3425 59.688 88.1825 59.672 87.9905 59.672C87.4465 59.672 86.9665 59.96 86.5505 60.536C86.1345 61.112 85.7825 61.912 85.4945 62.936C84.9825 64.92 84.6305 67.08 84.4385 69.416C84.3105 71.592 84.2465 73.208 84.2465 74.264C84.2465 75.352 84.2945 76.84 84.3905 78.728C84.5185 80.488 84.7905 82.024 85.2065 83.336C85.4305 84.104 85.6865 84.728 85.9745 85.208C86.2945 85.656 86.6945 86.04 87.1745 86.36C87.7185 86.712 88.2785 86.888 88.8545 86.888C90.3905 86.888 91.1585 84.328 91.1585 79.208V77C90.9345 76.904 90.5665 76.856 90.0545 76.856H89.6225H89.0945C87.9745 76.856 87.4145 76.488 87.4145 75.752C87.4145 75.304 87.5585 74.968 87.8465 74.744C88.1665 74.488 88.5665 74.36 89.0465 74.36V74.408H89.7185C92.5985 74.408 94.0385 74.904 94.0385 75.896C94.0385 76.184 93.9585 76.76 93.7985 77.624C93.6065 78.392 93.5105 78.968 93.5105 79.352C93.5105 79.896 93.5585 80.744 93.6545 81.896L93.7505 84.44C93.7505 85.976 93.2065 87.192 92.1185 88.088C91.0625 88.952 89.7665 89.384 88.2305 89.384ZM108.04 89.432C107.304 89.432 106.76 89.32 106.408 89.096C106.056 88.872 105.88 88.456 105.88 87.848C105.88 86.888 105.72 85.256 105.4 82.952L105.208 81.944L100.456 81.224C100.264 81.96 99.9923 83.448 99.6403 85.688C99.4483 87.256 99.1443 88.296 98.7283 88.808C98.5043 89.096 98.1843 89.24 97.7683 89.24C97.3843 89.24 97.0323 89.128 96.7123 88.904C96.3923 88.648 96.2323 88.344 96.2323 87.992L96.3283 87.752L96.3763 87.56C98.4883 79.336 100.088 71.224 101.176 63.224C101.176 63.096 101.192 62.888 101.224 62.6C101.256 62.28 101.288 61.832 101.32 61.256C101.416 60.072 101.512 59.128 101.608 58.424C101.736 57.72 101.928 57.192 102.184 56.84H103.816C104.264 56.84 104.648 56.952 104.968 57.176C105.288 57.368 105.448 57.656 105.448 58.04C105.448 60.472 105.784 64.088 106.456 68.888C107.096 73.816 107.416 77.272 107.416 79.256C107.416 79.448 107.496 79.944 107.656 80.744C107.816 81.48 107.896 81.96 107.896 82.184C107.896 82.408 108.056 83.368 108.376 85.064C108.664 86.6 108.808 87.592 108.808 88.04V88.088C108.808 88.792 108.552 89.24 108.04 89.432ZM104.872 80.216C104.776 79.736 104.728 79.144 104.728 78.44C104.728 75.56 104.472 71.88 103.96 67.4L103.48 62.408C102.104 69.928 101.16 75.608 100.648 79.448C101.128 79.768 102.536 80.024 104.872 80.216ZM43.73 150.336C43.25 150.336 42.866 150.112 42.578 149.664C42.322 149.184 42.194 148.608 42.194 147.936C42.194 146.88 42.258 145.584 42.386 144.048L42.482 142.8L42.578 140.256C42.578 139.136 42.466 136.64 42.242 132.768C42.018 128.896 41.906 126.4 41.906 125.28C41.906 125.184 41.906 125.008 41.906 124.752C41.938 124.464 41.954 124.032 41.954 123.456C41.986 122.816 42.002 122.032 42.002 121.104C42.002 118.768 41.842 117.28 41.522 116.64C41.33 116.64 40.914 116.688 40.274 116.784L38.93 116.88C38.514 116.88 38.146 116.768 37.826 116.544C37.506 116.288 37.346 115.968 37.346 115.584C37.346 115.2 37.73 114.864 38.498 114.576C39.618 114.192 41.522 113.92 44.21 113.76C45.298 113.696 45.954 113.664 46.178 113.664C46.562 113.664 46.914 113.792 47.234 114.048C47.554 114.304 47.714 114.624 47.714 115.008C47.714 115.392 47.57 115.712 47.282 115.968C47.026 116.192 46.69 116.304 46.274 116.304L45.41 116.256C45.154 116.224 44.866 116.208 44.546 116.208H44.066C44.29 118.384 44.402 120.352 44.402 122.112L44.354 125.184C44.322 126.112 44.306 127.152 44.306 128.304C44.306 129.84 44.37 131.68 44.498 133.824C44.658 136.48 44.738 138.32 44.738 139.344C44.738 140.56 44.802 142 44.93 143.664C45.058 145.36 45.122 146.8 45.122 147.984C45.122 149.552 44.658 150.336 43.73 150.336ZM54.9485 150.624C54.5325 150.624 54.1485 150.48 53.7965 150.192C53.4765 149.904 53.3005 149.552 53.2685 149.136V147.888V146.928C53.2365 146.64 53.2205 146.304 53.2205 145.92C53.2205 145.248 53.1725 144.224 53.0765 142.848L52.9805 139.776C52.9805 138.208 53.0285 135.872 53.1245 132.768C53.2525 129.984 53.3165 127.648 53.3165 125.76C53.3165 125.312 53.2685 124.64 53.1725 123.744C53.0765 122.816 53.0285 122.144 53.0285 121.728C53.0285 119.456 53.7005 118.32 55.0445 118.32C56.1005 118.32 57.3165 118.528 58.6925 118.944C60.1005 119.36 60.8045 119.856 60.8045 120.432C60.8045 120.752 60.6605 121.056 60.3725 121.344C60.1165 121.6 59.7965 121.808 59.4125 121.968C58.0685 121.488 56.8525 121.168 55.7645 121.008C55.7965 121.488 55.8125 122.176 55.8125 123.072C55.8125 124.352 55.7965 125.504 55.7645 126.528C55.6685 128.064 55.6205 129.216 55.6205 129.984L55.7645 130.752L56.5325 130.704C56.7885 130.672 57.1085 130.656 57.4925 130.656C59.0285 130.656 59.7965 131.104 59.7965 132C59.7965 132.352 59.6525 132.656 59.3645 132.912C59.0765 133.136 58.7085 133.248 58.2605 133.248C57.6845 133.248 57.2365 133.216 56.9165 133.152H55.7165C55.7805 133.984 55.8125 135.2 55.8125 136.8C55.8125 138.4 55.7965 139.84 55.7645 141.12C55.6685 143.072 55.6205 144.528 55.6205 145.488C55.6205 147.28 55.6525 148.176 55.7165 148.176L57.3005 148.128C57.8445 148.096 58.5005 148.08 59.2685 148.08C60.4845 148.08 61.0925 148.464 61.0925 149.232C61.0925 149.68 60.8845 150.016 60.4685 150.24C60.0845 150.496 59.6045 150.624 59.0285 150.624H54.9485ZM72.8131 150.672C72.1091 150.672 71.3571 150.56 70.5571 150.336C69.7891 150.144 69.1971 149.92 68.7811 149.664C66.6371 148.288 65.5651 144.528 65.5651 138.384V137.088V135.6V134.448C65.5651 133.168 65.5811 132.032 65.6131 131.04C65.6451 130.016 65.7091 128.912 65.8051 127.728C65.9011 126.48 66.0451 125.472 66.2371 124.704C66.4291 123.904 66.7491 123.008 67.1971 122.016C67.5811 121.088 68.0451 120.368 68.5891 119.856C69.1651 119.344 69.9011 118.912 70.7971 118.56C71.5971 118.208 72.5891 118.032 73.7731 118.032C74.2531 118.032 74.6211 118.144 74.8771 118.368C75.1331 118.592 75.2611 118.88 75.2611 119.232C75.2611 119.552 75.1491 119.84 74.9251 120.096C74.7331 120.352 74.4931 120.496 74.2051 120.528H71.9491C71.3091 120.528 70.7491 120.928 70.2691 121.728C69.7891 122.528 69.4531 123.568 69.2611 124.848C68.8451 127.216 68.6371 129.136 68.6371 130.608V130.848L68.5411 135.456C68.4771 136.832 68.4451 138.384 68.4451 140.112C68.4451 141.328 68.4931 142.32 68.5891 143.088C68.7491 144.24 69.0211 145.2 69.4051 145.968C69.7891 146.832 70.4451 147.456 71.3731 147.84C71.8531 148.032 72.3811 148.128 72.9571 148.128C73.3091 148.128 73.6611 148 74.0131 147.744C74.4291 147.744 74.7651 147.84 75.0211 148.032C75.3091 148.192 75.4531 148.448 75.4531 148.8C75.4531 150.048 74.5731 150.672 72.8131 150.672ZM88.2354 150C87.1474 150 86.6034 147.36 86.6034 142.08L86.6514 139.344L86.6994 137.136V136.992V136.512C86.7314 136.256 86.7474 135.952 86.7474 135.6C86.7474 135.536 86.6994 135.456 86.6034 135.36C86.5074 135.264 86.4594 135.184 86.4594 135.12V135.072C86.2994 135.136 86.0114 135.168 85.5954 135.168C85.1794 135.168 84.6674 135.104 84.0594 134.976C83.8674 134.944 83.3554 134.864 82.5234 134.736V140.256C82.5234 141.088 82.5714 142.4 82.6674 144.192C82.7634 145.952 82.8114 147.264 82.8114 148.128C82.8114 148.608 82.6834 149.024 82.4274 149.376C82.1714 149.728 81.8354 149.904 81.4194 149.904C80.8114 149.904 80.3794 149.312 80.1234 148.128C79.8674 146.912 79.7394 145.328 79.7394 143.376L79.8354 139.488C79.8674 138.4 79.8834 137.248 79.8834 136.032V135.216V134.544C79.8834 134.032 79.8674 133.696 79.8354 133.536V133.296L79.9794 130.512C79.9794 129.296 79.9314 127.488 79.8354 125.088C79.7394 122.688 79.6914 120.88 79.6914 119.664C79.6914 119.28 79.8194 118.944 80.0754 118.656C80.3314 118.368 80.6514 118.224 81.0354 118.224C82.0594 118.224 82.5714 119.184 82.5714 121.104L82.4754 127.056C82.4114 128.848 82.3794 130.848 82.3794 133.056C82.8594 133.216 83.7234 133.296 84.9714 133.296H86.7474C86.8114 133.104 86.8434 132.912 86.8434 132.72C86.8434 131.184 86.7474 128.912 86.5554 125.904C86.3314 123.088 86.2194 120.8 86.2194 119.04C86.2194 118.688 86.3474 118.4 86.6034 118.176C86.8914 117.92 87.2274 117.792 87.6114 117.792C87.8354 117.792 88.1554 117.872 88.5714 118.032L89.0034 118.224C89.0034 122.768 89.1634 128.832 89.4834 136.416L89.9154 148.56C89.9154 149.008 89.7394 149.36 89.3874 149.616C89.0674 149.872 88.6834 150 88.2354 150Z" fill="#C00000"/>
<rect x="1" y="1" width="130" height="199" rx="49" stroke="#C00000" stroke-width="2"/>
</svg>
