<svg width="36" height="55" viewBox="0 0 36 55" fill="none" xmlns="http://www.w3.org/2000/svg">
<path d="M17.7739 36.624C17.6139 36.624 17.4859 36.544 17.3899 36.384C17.2939 36.224 17.2459 35.992 17.2459 35.688L17.2219 32.136C17.2059 31.832 17.1979 31.328 17.1979 30.624C17.1659 29.136 17.1499 27.456 17.1499 25.584V24.36C17.0059 25.128 16.7579 26.208 16.4059 27.6C16.0539 29.04 15.8059 30.224 15.6619 31.152V31.296L15.5899 31.752C15.5579 32.104 15.4779 32.464 15.3499 32.832C15.1899 33.216 14.9419 33.408 14.6059 33.408C14.0299 33.408 13.7419 32.656 13.7419 31.152C13.7419 30.32 13.6539 29.432 13.4779 28.488C13.3179 27.528 13.0539 26.352 12.6859 24.96L11.9659 22.272L11.9179 25.152C11.9179 26.016 11.9579 27.664 12.0379 30.096L12.0859 31.728L12.1339 35.016C12.1339 35.352 12.0139 35.656 11.7739 35.928C11.3739 35.928 11.0939 35.808 10.9339 35.568C10.7899 35.312 10.7179 34.944 10.7179 34.464L10.7659 32.496C10.8139 31.632 10.8379 30.984 10.8379 30.552L10.7899 25.92L10.7419 21.264C10.7419 20.576 10.7579 19.544 10.7899 18.168L11.4379 17.784C11.5659 17.8 11.6939 17.896 11.8219 18.072C11.9499 18.232 12.0939 18.496 12.2539 18.864C12.6539 19.856 13.1739 21.84 13.8139 24.816C13.9099 25.232 13.9739 25.576 14.0059 25.848C14.1979 26.776 14.3339 27.48 14.4139 27.96L14.7739 29.808L14.9419 29.016L15.3979 27.048C15.6539 25.896 15.8619 24.888 16.0219 24.024C16.1979 23.16 16.3659 22.224 16.5259 21.216C16.7019 20.016 16.8139 19.016 16.8619 18.216V18.072C16.8939 17.864 16.9899 17.704 17.1499 17.592C17.3099 17.464 17.5019 17.4 17.7259 17.4C17.8699 17.4 17.9979 17.464 18.1099 17.592C18.2219 17.72 18.2779 17.856 18.2779 18C18.2779 19.92 18.3499 22.792 18.4939 26.616C18.5739 28.488 18.6299 30.32 18.6619 32.112C18.6939 32.928 18.7099 33.96 18.7099 35.208C18.7099 35.576 18.6139 35.904 18.4219 36.192C18.2299 36.48 18.0139 36.624 17.7739 36.624ZM23.5369 36.168C23.2969 36.168 23.1049 36.056 22.9609 35.832C22.8329 35.592 22.7689 35.304 22.7689 34.968C22.7689 34.44 22.8009 33.792 22.8649 33.024L22.9129 32.4L22.9609 31.128C22.9609 30.568 22.9049 29.32 22.7929 27.384C22.6809 25.448 22.6249 24.2 22.6249 23.64C22.6249 23.592 22.6249 23.504 22.6249 23.376C22.6409 23.232 22.6489 23.016 22.6489 22.728C22.6649 22.408 22.6729 22.016 22.6729 21.552C22.6729 20.384 22.5929 19.64 22.4329 19.32C22.3369 19.32 22.1289 19.344 21.8089 19.392L21.1369 19.44C20.9289 19.44 20.7449 19.384 20.5849 19.272C20.4249 19.144 20.3449 18.984 20.3449 18.792C20.3449 18.6 20.5369 18.432 20.9209 18.288C21.4809 18.096 22.4329 17.96 23.7769 17.88C24.3209 17.848 24.6489 17.832 24.7609 17.832C24.9529 17.832 25.1289 17.896 25.2889 18.024C25.4489 18.152 25.5289 18.312 25.5289 18.504C25.5289 18.696 25.4569 18.856 25.3129 18.984C25.1849 19.096 25.0169 19.152 24.8089 19.152L24.3769 19.128C24.2489 19.112 24.1049 19.104 23.9449 19.104H23.7049C23.8169 20.192 23.8729 21.176 23.8729 22.056L23.8489 23.592C23.8329 24.056 23.8249 24.576 23.8249 25.152C23.8249 25.92 23.8569 26.84 23.9209 27.912C24.0009 29.24 24.0409 30.16 24.0409 30.672C24.0409 31.28 24.0729 32 24.1369 32.832C24.2009 33.68 24.2329 34.4 24.2329 34.992C24.2329 35.776 24.0009 36.168 23.5369 36.168Z" fill="#C00000"/>
<rect x="1" y="1" width="34" height="53" rx="9" stroke="#C00000" stroke-width="2"/>
</svg>
